<?xml version="1.0" encoding="UTF-8"?>
<!DOCTYPE svg PUBLIC "-//W3C//DTD SVG 1.1//EN" "http://www.w3.org/Graphics/SVG/1.1/DTD/svg11.dtd">
<!-- Creator: CorelDRAW X8 -->
<svg xmlns="http://www.w3.org/2000/svg" xml:space="preserve" width="1400px" height="480px" version="1.1" style="shape-rendering:geometricPrecision; text-rendering:geometricPrecision; image-rendering:optimizeQuality; fill-rule:evenodd; clip-rule:evenodd"
viewBox="0 0 1400 480"
 xmlns:xlink="http://www.w3.org/1999/xlink">
 <defs>
  <style type="text/css">
   <![CDATA[
    .str0 {stroke:#0AC3FE;stroke-width:2.95276}
    .fil1 {fill:none;fill-rule:nonzero}
    .fil5 {fill:#727376}
    .fil3 {fill:#BDBFC1}
    .fil4 {fill:url(#id0)}
    .fil0 {fill:url(#id1);fill-rule:nonzero}
    .fil2 {fill:url(#id2);fill-rule:nonzero}
   ]]>
  </style>
  <linearGradient id="id0" gradientUnits="userSpaceOnUse" x1="173.421" y1="351.61" x2="517.727" y2="305.829">
   <stop offset="0" style="stop-opacity:1; stop-color:#BDBFC1"/>
   <stop offset="0.831373" style="stop-opacity:1; stop-color:#DDDEDF"/>
   <stop offset="1" style="stop-opacity:1; stop-color:#FEFEFE"/>
  </linearGradient>
  <linearGradient id="id1" gradientUnits="objectBoundingBox" x1="70.3159%" y1="107.156%" x2="71.8057%" y2="0%">
   <stop offset="0" style="stop-opacity:1; stop-color:#0AC3F3"/>
   <stop offset="0.458824" style="stop-opacity:1; stop-color:#38CDF5"/>
   <stop offset="1" style="stop-opacity:1; stop-color:#66D8F7"/>
  </linearGradient>
  <linearGradient id="id2" gradientUnits="objectBoundingBox" xlink:href="#id1" x1="69.8681%" y1="106.994%" x2="72.3375%" y2="0%">
  </linearGradient>
 </defs>
 <g id="Camada_x0020_1">
  <metadata id="CorelCorpID_0Corel-Layer"/>
  <path class="fil0" d="M732 330l0 0 -76 0 0 0 -2 0 -3 23 1 0 1 0 6 0c2,0 3,-1 3,-3 1,-1 1,-3 2,-5l19 0 -8 68c-2,0 -3,1 -4,1 -1,0 -2,0 -2,0 -1,0 -1,0 -1,0 -2,1 -4,2 -4,4l-1 8 10 0 18 0 10 0 1 -8c0,-2 -1,-3 -3,-4 0,0 0,0 -1,0 0,0 -1,0 -1,0 -1,0 -3,-1 -4,-1l8 -68 20 0c0,2 0,4 0,5 0,2 1,3 2,3l6 0 1 0 1 0 3 -23 -2 0z"/>
  <path id="1" class="fil0" d="M787 374c0,-2 -1,-4 -1,-6 -1,-2 -3,-4 -4,-6 -2,-1 -4,-3 -7,-4 -3,-1 -6,-1 -10,-1 -3,0 -7,0 -10,1 -3,2 -6,3 -9,5 -2,2 -5,4 -7,7 -2,2 -4,5 -5,8 -2,3 -3,7 -4,10 0,4 -1,7 -1,11 0,4 1,8 2,11 1,4 3,7 5,9 3,3 6,5 9,6 3,1 7,2 11,2 3,0 6,0 8,-1 3,0 5,-1 8,-2 2,-1 4,-3 6,-4 3,-2 5,-4 7,-6l-4 -6c0,0 -1,0 -1,-1 -1,0 -1,0 -2,0 -1,0 -1,0 -2,1 -1,0 -2,0 -2,1 -1,0 -2,1 -3,2 -1,0 -2,1 -3,2 -1,0 -2,1 -4,1 -1,0 -3,0 -5,0 -9,0 -14,-5 -14,-16l0 -1c9,0 15,-2 21,-3 5,-1 9,-3 13,-5 3,-2 5,-4 6,-7 1,-2 2,-5 2,-8zm-22 -6c1,0 2,0 3,1 1,0 2,1 2,1 1,1 1,1 2,2 0,1 0,2 0,2 0,2 0,3 -1,4 0,1 -2,2 -3,4 -2,1 -5,2 -8,2 -4,1 -8,2 -13,3 0,-3 1,-5 2,-8 1,-2 3,-4 4,-5 2,-2 3,-3 5,-4 2,-1 4,-2 7,-2z"/>
  <path id="2" class="fil0" d="M843 410c-1,-1 -2,-2 -3,-2 -1,0 -2,1 -3,1 -1,1 -2,2 -3,2 -1,1 -3,2 -4,3 -2,0 -4,1 -7,1 -2,0 -5,-1 -7,-2 -2,-1 -3,-2 -4,-4 -2,-2 -3,-5 -3,-7 0,-3 0,-7 0,-10 1,-4 1,-7 2,-10 1,-2 3,-5 4,-7 2,-2 4,-3 6,-4 3,-1 5,-2 8,-2 2,0 5,1 9,2 -1,5 -1,8 -1,9 1,2 2,3 3,3l6 0 1 0 1 0 3 -21c-9,-4 -16,-5 -21,-5 -6,0 -11,1 -15,2 -4,2 -8,5 -11,8 -3,3 -6,7 -8,11 -2,4 -3,9 -4,14 0,5 0,10 1,15 1,4 3,8 5,11 3,3 5,5 9,7 4,1 7,2 12,2 2,0 4,0 7,0 2,-1 5,-1 7,-2 3,-1 5,-2 7,-4 2,-1 5,-3 7,-5l-4 -6z"/>
  <path id="3" class="fil0" d="M926 414c0,0 -1,0 -1,0 0,0 -1,0 -2,0 -1,0 -2,-1 -4,-1l4 -30c0,-4 0,-8 0,-11 -1,-3 -2,-6 -4,-8 -1,-2 -3,-4 -6,-5 -3,-2 -6,-2 -10,-2 -2,0 -4,0 -6,0 -2,1 -4,1 -6,2 -2,1 -4,2 -5,3 -2,1 -3,3 -5,4l0 -5c-1,-2 -2,-3 -4,-3l-10 0 -10 0 -1 8c-1,2 0,3 2,4 1,0 1,0 1,0 1,0 1,0 2,0 1,0 2,1 4,1l-4 35 -3 20 17 0 1 -13 2 -11 0 -4 3 -21c2,-3 5,-4 7,-6 3,-1 6,-1 9,-1 4,0 6,1 8,3 2,2 2,5 2,10l-6 43 17 0 10 0 1 -8c0,-2 -1,-3 -3,-4z"/>
  <path id="4" class="fil0" d="M972 357c-5,0 -9,1 -14,2 -4,2 -8,4 -11,7 -4,3 -6,7 -8,11 -3,5 -4,9 -5,15 0,5 0,10 1,14 1,5 3,9 5,12 3,3 6,5 10,7 4,1 9,2 14,2 5,0 10,-1 14,-2 4,-2 8,-4 11,-7 4,-3 6,-7 9,-12 2,-4 3,-9 4,-14 0,-6 0,-10 -1,-15 -1,-4 -3,-8 -5,-11 -3,-3 -6,-5 -10,-7 -4,-1 -8,-2 -14,-2zm-7 57c-5,0 -9,-1 -12,-5 -2,-4 -3,-10 -2,-17 1,-7 3,-13 6,-17 4,-4 8,-6 14,-6 6,0 10,2 12,6 2,4 3,10 2,17 -1,7 -3,13 -6,17 -4,4 -8,5 -14,5z"/>
  <path id="5" class="fil0" d="M1032 414c0,0 0,0 -1,0 0,0 -1,0 -2,0 -1,0 -2,-1 -4,-1l11 -86 -17 0 -10 0 -1 8c0,2 1,4 3,4 0,0 1,0 1,0 0,0 1,0 2,1 1,0 2,0 4,0l-5 39 -2 18 -2 16 -2 13 0 0 17 0 10 0 1 -8c0,-2 -1,-3 -3,-4z"/>
  <path id="6" class="fil0" d="M1079 357c-5,0 -10,1 -14,2 -4,2 -8,4 -11,7 -4,3 -7,7 -9,11 -2,5 -3,9 -4,15 -1,5 0,10 1,14 1,5 3,9 5,12 3,3 6,5 10,7 4,1 8,2 14,2 5,0 9,-1 14,-2 4,-2 8,-4 11,-7 3,-3 6,-7 8,-12 2,-4 4,-9 4,-14 1,-6 1,-10 0,-15 -1,-4 -3,-8 -6,-11 -2,-3 -5,-5 -9,-7 -4,-1 -9,-2 -14,-2zm-7 57c-6,0 -10,-1 -12,-5 -2,-4 -3,-10 -2,-17 1,-7 3,-13 6,-17 3,-4 8,-6 14,-6 5,0 9,2 12,6 2,4 2,10 2,17 -1,7 -3,13 -7,17 -3,4 -7,5 -13,5z"/>
  <path id="7" class="fil0" d="M1176 377c0,-1 0,-2 -1,-3 0,-1 0,-2 0,-2l7 -2c1,-1 2,-1 2,-2 1,-1 1,-2 1,-3l1 -5 -19 0c-2,-1 -4,-2 -6,-3 -3,0 -5,0 -8,0 -4,0 -8,0 -12,2 -4,1 -7,3 -9,6 -2,2 -4,5 -5,8 -2,4 -2,7 -2,10 0,4 0,7 1,9 1,3 3,5 4,7 2,2 4,3 7,4 2,0 4,1 7,1 3,0 5,0 8,-1 2,-1 4,-2 5,-3 -1,3 -2,6 -2,9 0,1 0,1 0,2 0,1 1,2 1,2 -2,0 -3,0 -5,0 -2,0 -4,-1 -5,-1 -4,0 -8,1 -12,1 -3,1 -7,2 -10,4 -3,1 -5,3 -7,6 -2,3 -3,6 -3,10 0,2 1,4 2,6 1,3 3,4 5,6 3,2 5,3 9,4 3,0 7,1 11,1 5,0 10,-1 14,-2 4,-1 8,-3 10,-6 3,-2 5,-4 7,-8 1,-3 2,-6 2,-9 0,-2 0,-5 -1,-6 -1,-2 -2,-4 -2,-5 -1,-2 -2,-4 -3,-5 -1,-2 -1,-3 -1,-5 0,-2 0,-4 1,-5 0,-1 1,-3 1,-4 1,-1 2,-2 2,-4 1,-1 2,-2 2,-4 1,-1 2,-2 2,-4 0,-2 1,-4 1,-6l0 0zm-17 49c0,2 0,4 -1,5 -1,2 -2,3 -3,4 -2,1 -4,2 -6,3 -2,0 -4,1 -6,1 -5,0 -8,-1 -10,-2 -2,-2 -4,-4 -4,-7 0,-1 1,-2 1,-3 1,-1 2,-2 3,-3 2,-1 4,-1 6,-2 2,0 5,0 8,0 1,0 3,0 5,0 2,0 4,0 7,1 0,0 0,1 0,1 0,1 0,2 0,2zm-10 -32c-3,0 -6,-1 -7,-3 -2,-2 -2,-4 -2,-8 0,-2 0,-4 0,-5 1,-2 2,-4 3,-5 1,-2 2,-3 3,-4 2,-1 4,-1 6,-1 3,0 5,1 6,2 2,2 3,5 3,8 0,2 -1,4 -1,6 -1,2 -1,3 -2,5 -2,1 -3,3 -4,4 -2,1 -4,1 -5,1l0 0z"/>
  <path id="8" class="fil0" d="M1218 414c0,0 0,0 0,0 -1,0 -1,0 -2,0 -1,0 -2,-1 -4,-1l7 -55 -17 0 -10 0 -1 8c0,2 1,3 3,4 0,0 1,0 1,0 0,0 1,0 2,0 1,0 2,1 4,1l-5 42 -2 13 16 0 10 0 1 -8c1,-2 0,-3 -3,-4zm6 -76c0,-2 0,-3 -1,-4 0,-2 -1,-3 -2,-4 -1,-1 -2,-1 -3,-2 -1,0 -2,-1 -4,-1 -1,0 -3,1 -4,1 -1,1 -2,1 -3,2 -2,1 -2,2 -3,4 -1,1 -1,2 -1,4 -1,1 0,3 0,4 0,1 1,2 2,3 1,1 2,2 3,2 1,1 2,1 4,1 1,0 3,0 4,-1 1,0 2,-1 3,-2 2,-1 2,-2 3,-3 1,-1 1,-3 2,-4z"/>
  <path id="9" class="fil0" d="M1289 414c0,0 0,0 -1,0 -1,0 -2,-1 -3,-1l-1 0 7 -53c-3,-1 -6,-2 -9,-3 -3,0 -6,0 -9,0 -4,0 -8,0 -12,1 -4,2 -8,3 -11,5 -3,2 -6,5 -9,7 -3,3 -5,6 -7,10 -2,3 -3,7 -4,11 -1,4 -2,8 -2,12 0,4 1,7 2,10 1,3 2,6 4,8 1,2 3,3 6,5 2,1 4,1 7,1 4,0 8,-1 12,-4 4,-3 7,-7 10,-11l0 9c0,2 0,3 1,4 1,1 2,1 4,1l9 0 0 0 0 0 8 0 1 -8c0,-2 -1,-4 -3,-4zm-18 -25c-1,4 -2,7 -3,10 -1,3 -3,5 -4,8 -2,2 -4,3 -5,5 -2,1 -4,2 -6,2 -2,0 -4,-2 -6,-4 -1,-2 -2,-5 -2,-10 0,-5 0,-9 2,-12 1,-4 3,-7 5,-10 2,-3 5,-5 8,-7 3,-2 7,-3 11,-3 1,0 2,0 3,1l-3 20z"/>
  <path id="10" class="fil1 str0" d="M732 330l0 0 -76 0 0 0 -2 0 -3 23 1 0 1 0 6 0c2,0 3,-1 3,-3 1,-1 1,-3 2,-5l19 0 -8 68c-2,0 -3,1 -4,1 -1,0 -2,0 -2,0 -1,0 -1,0 -1,0 -2,1 -4,2 -4,4l-1 8 10 0 18 0 10 0 1 -8c0,-2 -1,-3 -3,-4 0,0 0,0 -1,0 0,0 -1,0 -1,0 -1,0 -3,-1 -4,-1l8 -68 20 0c0,2 0,4 0,5 0,2 1,3 2,3l6 0 1 0 1 0 3 -23 -2 0z"/>
  <path id="11" class="fil1 str0" d="M787 374c0,-2 -1,-4 -1,-6 -1,-2 -3,-4 -4,-6 -2,-1 -4,-3 -7,-4 -3,-1 -6,-1 -10,-1 -3,0 -7,0 -10,1 -3,2 -6,3 -9,5 -2,2 -5,4 -7,7 -2,2 -4,5 -5,8 -2,3 -3,7 -4,10 0,4 -1,7 -1,11 0,4 1,8 2,11 1,4 3,7 5,9 3,3 6,5 9,6 3,1 7,2 11,2 3,0 6,0 8,-1 3,0 5,-1 8,-2 2,-1 4,-3 6,-4 3,-2 5,-4 7,-6l-4 -6c0,0 -1,0 -1,-1 -1,0 -1,0 -2,0 -1,0 -1,0 -2,1 -1,0 -2,0 -2,1 -1,0 -2,1 -3,2 -1,0 -2,1 -3,2 -1,0 -2,1 -4,1 -1,0 -3,0 -5,0 -9,0 -14,-5 -14,-16l0 -1c9,0 15,-2 21,-3 5,-1 9,-3 13,-5 3,-2 5,-4 6,-7 1,-2 2,-5 2,-8zm-22 -6c1,0 2,0 3,1 1,0 2,1 2,1 1,1 1,1 2,2 0,1 0,2 0,2 0,2 0,3 -1,4 0,1 -2,2 -3,4 -2,1 -5,2 -8,2 -4,1 -8,2 -13,3 0,-3 1,-5 2,-8 1,-2 3,-4 4,-5 2,-2 3,-3 5,-4 2,-1 4,-2 7,-2z"/>
  <path id="12" class="fil1 str0" d="M843 410c-1,-1 -2,-2 -3,-2 -1,0 -2,1 -3,1 -1,1 -2,2 -3,2 -1,1 -3,2 -4,3 -2,0 -4,1 -7,1 -2,0 -5,-1 -7,-2 -2,-1 -3,-2 -4,-4 -2,-2 -3,-5 -3,-7 0,-3 0,-7 0,-10 1,-4 1,-7 2,-10 1,-2 3,-5 4,-7 2,-2 4,-3 6,-4 3,-1 5,-2 8,-2 2,0 5,1 9,2 -1,5 -1,8 -1,9 1,2 2,3 3,3l6 0 1 0 1 0 3 -21c-9,-4 -16,-5 -21,-5 -6,0 -11,1 -15,2 -4,2 -8,5 -11,8 -3,3 -6,7 -8,11 -2,4 -3,9 -4,14 0,5 0,10 1,15 1,4 3,8 5,11 3,3 5,5 9,7 4,1 7,2 12,2 2,0 4,0 7,0 2,-1 5,-1 7,-2 3,-1 5,-2 7,-4 2,-1 5,-3 7,-5l-4 -6z"/>
  <path id="13" class="fil1 str0" d="M926 414c0,0 -1,0 -1,0 0,0 -1,0 -2,0 -1,0 -2,-1 -4,-1l4 -30c0,-4 0,-8 0,-11 -1,-3 -2,-6 -4,-8 -1,-2 -3,-4 -6,-5 -3,-2 -6,-2 -10,-2 -2,0 -4,0 -6,0 -2,1 -4,1 -6,2 -2,1 -4,2 -5,3 -2,1 -3,3 -5,4l0 -5c-1,-2 -2,-3 -4,-3l-10 0 -10 0 -1 8c-1,2 0,3 2,4 1,0 1,0 1,0 1,0 1,0 2,0 1,0 2,1 4,1l-4 35 -3 20 17 0 1 -13 2 -11 0 -4 3 -21c2,-3 5,-4 7,-6 3,-1 6,-1 9,-1 4,0 6,1 8,3 2,2 2,5 2,10l-6 43 17 0 10 0 1 -8c0,-2 -1,-3 -3,-4z"/>
  <path id="14" class="fil1 str0" d="M972 357c-5,0 -9,1 -14,2 -4,2 -8,4 -11,7 -4,3 -6,7 -8,11 -3,5 -4,9 -5,15 0,5 0,10 1,14 1,5 3,9 5,12 3,3 6,5 10,7 4,1 9,2 14,2 5,0 10,-1 14,-2 4,-2 8,-4 11,-7 4,-3 6,-7 9,-12 2,-4 3,-9 4,-14 0,-6 0,-10 -1,-15 -1,-4 -3,-8 -5,-11 -3,-3 -6,-5 -10,-7 -4,-1 -8,-2 -14,-2zm-7 57c-5,0 -9,-1 -12,-5 -2,-4 -3,-10 -2,-17 1,-7 3,-13 6,-17 4,-4 8,-6 14,-6 6,0 10,2 12,6 2,4 3,10 2,17 -1,7 -3,13 -6,17 -4,4 -8,5 -14,5z"/>
  <path id="15" class="fil1 str0" d="M1032 414c0,0 0,0 -1,0 0,0 -1,0 -2,0 -1,0 -2,-1 -4,-1l11 -86 -17 0 -10 0 -1 8c0,2 1,4 3,4 0,0 1,0 1,0 0,0 1,0 2,1 1,0 2,0 4,0l-5 39 -2 18 -2 16 -2 13 0 0 17 0 10 0 1 -8c0,-2 -1,-3 -3,-4z"/>
  <path id="16" class="fil1 str0" d="M1079 357c-5,0 -10,1 -14,2 -4,2 -8,4 -11,7 -4,3 -7,7 -9,11 -2,5 -3,9 -4,15 -1,5 0,10 1,14 1,5 3,9 5,12 3,3 6,5 10,7 4,1 8,2 14,2 5,0 9,-1 14,-2 4,-2 8,-4 11,-7 3,-3 6,-7 8,-12 2,-4 4,-9 4,-14 1,-6 1,-10 0,-15 -1,-4 -3,-8 -6,-11 -2,-3 -5,-5 -9,-7 -4,-1 -9,-2 -14,-2zm-7 57c-6,0 -10,-1 -12,-5 -2,-4 -3,-10 -2,-17 1,-7 3,-13 6,-17 3,-4 8,-6 14,-6 5,0 9,2 12,6 2,4 2,10 2,17 -1,7 -3,13 -7,17 -3,4 -7,5 -13,5z"/>
  <path id="17" class="fil1 str0" d="M1176 377c0,-1 0,-2 -1,-3 0,-1 0,-2 0,-2l7 -2c1,-1 2,-1 2,-2 1,-1 1,-2 1,-3l1 -5 -19 0c-2,-1 -4,-2 -6,-3 -3,0 -5,0 -8,0 -4,0 -8,0 -12,2 -4,1 -7,3 -9,6 -2,2 -4,5 -5,8 -2,4 -2,7 -2,10 0,4 0,7 1,9 1,3 3,5 4,7 2,2 4,3 7,4 2,0 4,1 7,1 3,0 5,0 8,-1 2,-1 4,-2 5,-3 -1,3 -2,6 -2,9 0,1 0,1 0,2 0,1 1,2 1,2 -2,0 -3,0 -5,0 -2,0 -4,-1 -5,-1 -4,0 -8,1 -12,1 -3,1 -7,2 -10,4 -3,1 -5,3 -7,6 -2,3 -3,6 -3,10 0,2 1,4 2,6 1,3 3,4 5,6 3,2 5,3 9,4 3,0 7,1 11,1 5,0 10,-1 14,-2 4,-1 8,-3 10,-6 3,-2 5,-4 7,-8 1,-3 2,-6 2,-9 0,-2 0,-5 -1,-6 -1,-2 -2,-4 -2,-5 -1,-2 -2,-4 -3,-5 -1,-2 -1,-3 -1,-5 0,-2 0,-4 1,-5 0,-1 1,-3 1,-4 1,-1 2,-2 2,-4 1,-1 2,-2 2,-4 1,-1 2,-2 2,-4 0,-2 1,-4 1,-6l0 0zm-17 49c0,2 0,4 -1,5 -1,2 -2,3 -3,4 -2,1 -4,2 -6,3 -2,0 -4,1 -6,1 -5,0 -8,-1 -10,-2 -2,-2 -4,-4 -4,-7 0,-1 1,-2 1,-3 1,-1 2,-2 3,-3 2,-1 4,-1 6,-2 2,0 5,0 8,0 1,0 3,0 5,0 2,0 4,0 7,1 0,0 0,1 0,1 0,1 0,2 0,2zm-10 -32c-3,0 -6,-1 -7,-3 -2,-2 -2,-4 -2,-8 0,-2 0,-4 0,-5 1,-2 2,-4 3,-5 1,-2 2,-3 3,-4 2,-1 4,-1 6,-1 3,0 5,1 6,2 2,2 3,5 3,8 0,2 -1,4 -1,6 -1,2 -1,3 -2,5 -2,1 -3,3 -4,4 -2,1 -4,1 -5,1l0 0z"/>
  <path id="18" class="fil1 str0" d="M1218 414c0,0 0,0 0,0 -1,0 -1,0 -2,0 -1,0 -2,-1 -4,-1l7 -55 -17 0 -10 0 -1 8c0,2 1,3 3,4 0,0 1,0 1,0 0,0 1,0 2,0 1,0 2,1 4,1l-5 42 -2 13 16 0 10 0 1 -8c1,-2 0,-3 -3,-4zm6 -76c0,-2 0,-3 -1,-4 0,-2 -1,-3 -2,-4 -1,-1 -2,-1 -3,-2 -1,0 -2,-1 -4,-1 -1,0 -3,1 -4,1 -1,1 -2,1 -3,2 -2,1 -2,2 -3,4 -1,1 -1,2 -1,4 -1,1 0,3 0,4 0,1 1,2 2,3 1,1 2,2 3,2 1,1 2,1 4,1 1,0 3,0 4,-1 1,0 2,-1 3,-2 2,-1 2,-2 3,-3 1,-1 1,-3 2,-4z"/>
  <path id="19" class="fil1 str0" d="M1289 414c0,0 0,0 -1,0 -1,0 -2,-1 -3,-1l-1 0 7 -53c-3,-1 -6,-2 -9,-3 -3,0 -6,0 -9,0 -4,0 -8,0 -12,1 -4,2 -8,3 -11,5 -3,2 -6,5 -9,7 -3,3 -5,6 -7,10 -2,3 -3,7 -4,11 -1,4 -2,8 -2,12 0,4 1,7 2,10 1,3 2,6 4,8 1,2 3,3 6,5 2,1 4,1 7,1 4,0 8,-1 12,-4 4,-3 7,-7 10,-11l0 9c0,2 0,3 1,4 1,1 2,1 4,1l9 0 0 0 0 0 8 0 1 -8c0,-2 -1,-4 -3,-4zm-18 -25c-1,4 -2,7 -3,10 -1,3 -3,5 -4,8 -2,2 -4,3 -5,5 -2,1 -4,2 -6,2 -2,0 -4,-2 -6,-4 -1,-2 -2,-5 -2,-10 0,-5 0,-9 2,-12 1,-4 3,-7 5,-10 2,-3 5,-5 8,-7 3,-2 7,-3 11,-3 1,0 2,0 3,1l-3 20z"/>
  <path class="fil2" d="M278 258c0,0 -1,0 -2,-1 -1,0 -3,0 -5,-1 -3,0 -6,-1 -10,-2l18 -149 -45 0 -27 0 -2 21c-1,6 1,10 7,11 1,0 1,0 2,1 1,0 3,0 6,1 2,0 6,1 10,1l-14 114 -4 36 44 0 27 0 3 -21c1,-6 -2,-10 -8,-11zm14 -207c1,-4 0,-8 -1,-12 -1,-3 -3,-6 -5,-9 -2,-2 -5,-4 -8,-6 -4,-1 -7,-2 -11,-2 -4,0 -8,1 -11,2 -4,2 -7,4 -10,6 -3,3 -5,6 -7,9 -2,4 -3,8 -4,12 0,3 0,7 1,10 1,4 3,7 5,9 2,3 5,5 8,6 3,2 7,3 11,3 4,0 8,-1 11,-3 4,-1 7,-3 10,-6 3,-2 5,-5 7,-9 2,-3 4,-7 4,-10z"/>
  <path id="1" class="fil2" d="M497 258c-1,0 -2,0 -3,-1 -1,0 -2,0 -5,-1 -2,0 -6,-1 -10,-2l10 -82c1,-10 1,-20 -1,-28 -1,-9 -4,-16 -9,-23 -4,-6 -10,-11 -18,-14 -7,-3 -16,-5 -26,-5 -6,0 -12,0 -17,2 -6,1 -11,3 -16,5 -5,2 -10,5 -14,8 -5,3 -9,7 -13,10l-1 -14c-2,-6 -5,-8 -11,-8l-27 0 -27 0 -3 21c-1,6 2,10 8,11 0,0 1,0 2,1 1,0 3,0 5,1 3,0 6,1 11,1l-12 96 -7 54 45 0 4 -36 4 -30 1 -9 7 -59c7,-6 14,-11 21,-14 7,-4 15,-5 22,-5 11,0 18,3 23,9 4,6 6,15 4,26l-14 118 44 0 28 0 2 -21c1,-6 -2,-10 -7,-11z"/>
  <path id="2" class="fil2" d="M710 258c-1,0 -2,0 -3,-1 -1,0 -2,0 -5,-1 -2,0 -6,-1 -10,-2l10 -82c1,-10 1,-20 -1,-28 -1,-9 -4,-16 -9,-23 -4,-6 -10,-11 -18,-14 -7,-3 -16,-5 -26,-5 -6,0 -12,0 -17,2 -6,1 -11,3 -16,5 -5,2 -10,5 -14,8 -5,3 -9,7 -13,10l-1 -14c-2,-6 -5,-8 -11,-8l-27 0 -27 0 -3 21c-1,6 2,10 8,11 0,0 1,0 2,1 1,0 3,0 5,1 3,0 6,1 11,1l-12 96 -7 54 45 0 4 -36 4 -30 1 -9 7 -59c7,-6 14,-11 21,-14 7,-4 15,-5 22,-5 11,0 18,3 23,9 4,6 6,15 4,26l-14 118 44 0 28 0 2 -21c1,-6 -2,-10 -7,-11z"/>
  <path id="3" class="fil2" d="M836 102c-14,0 -27,2 -38,6 -12,5 -23,11 -32,19 -9,8 -16,19 -22,30 -6,12 -10,25 -11,40 -2,15 -2,28 1,40 3,12 8,22 15,30 7,8 16,15 27,19 11,5 23,7 37,7 13,0 26,-2 38,-7 12,-4 22,-11 31,-19 9,-8 16,-18 22,-30 6,-12 10,-25 11,-40 2,-15 2,-28 -1,-40 -3,-11 -8,-22 -15,-30 -7,-8 -16,-14 -26,-19 -11,-4 -23,-6 -37,-6zm-19 156c-16,0 -27,-5 -33,-15 -6,-11 -8,-26 -5,-46 2,-20 8,-35 16,-45 9,-11 21,-16 37,-16 15,0 26,5 32,16 6,10 8,25 5,45 -2,20 -8,35 -16,46 -9,10 -21,15 -36,15z"/>
  <path id="4" class="fil2" d="M1133 105l0 0 -35 0c0,0 0,0 0,0l-43 0 -3 21c0,6 2,10 8,11 2,1 3,1 12,2l-36 73c-3,6 -5,12 -7,17 -2,6 -4,11 -6,17 0,-6 -1,-11 -2,-17 0,-5 -1,-11 -3,-17l-17 -73c7,-1 8,-1 10,-2 6,-1 10,-5 10,-11l3 -21 -41 0c0,0 0,0 0,0l-37 0 0 0 -12 0 -3 21c0,6 2,10 8,11 3,1 2,1 17,3l41 150 40 0 78 -150c15,-2 14,-2 17,-3 6,-1 10,-5 10,-11l3 -21 -12 0z"/>
  <path id="5" class="fil2" d="M1301 148c0,-5 -1,-11 -4,-16 -2,-6 -6,-11 -11,-15 -5,-4 -11,-8 -18,-11 -7,-2 -15,-4 -25,-4 -10,0 -20,2 -28,5 -9,2 -17,6 -24,12 -8,5 -14,11 -20,18 -6,7 -10,15 -14,23 -4,9 -7,18 -9,27 -2,10 -4,19 -4,29 0,12 2,22 6,32 3,9 8,17 14,24 6,6 14,12 22,15 9,4 19,6 30,6 8,0 16,-1 23,-2 7,-2 14,-4 20,-7 7,-3 13,-7 19,-12 6,-4 12,-10 19,-16l-12 -14c-1,-1 -2,-2 -3,-3 -2,0 -3,-1 -5,-1 -2,0 -4,1 -6,2 -2,1 -4,2 -6,3 -2,2 -5,3 -7,5 -3,2 -5,4 -8,5 -4,2 -7,3 -11,4 -4,1 -9,1 -14,1 -25,0 -37,-14 -37,-43l0 -3c22,-2 41,-5 56,-9 14,-4 26,-9 34,-14 9,-5 15,-12 18,-18 3,-7 5,-15 5,-23zm-61 -15c4,0 7,1 10,2 2,1 4,2 6,4 2,1 3,3 4,5 0,2 1,4 1,5 0,4 -1,8 -3,11 -1,3 -5,6 -10,9 -5,3 -12,6 -21,8 -9,2 -21,5 -36,7 2,-8 5,-14 8,-21 3,-6 6,-11 10,-16 5,-4 9,-8 14,-10 6,-3 11,-4 17,-4z"/>
  <path id="6" class="fil1 str0" d="M278 258c0,0 -1,0 -2,-1 -1,0 -3,0 -5,-1 -3,0 -6,-1 -10,-2l18 -149 -45 0 -27 0 -2 21c-1,6 1,10 7,11 1,0 1,0 2,1 1,0 3,0 6,1 2,0 6,1 10,1l-14 114 -4 36 44 0 27 0 3 -21c1,-6 -2,-10 -8,-11zm14 -207c1,-4 0,-8 -1,-12 -1,-3 -3,-6 -5,-9 -2,-2 -5,-4 -8,-6 -4,-1 -7,-2 -11,-2 -4,0 -8,1 -11,2 -4,2 -7,4 -10,6 -3,3 -5,6 -7,9 -2,4 -3,8 -4,12 0,3 0,7 1,10 1,4 3,7 5,9 2,3 5,5 8,6 3,2 7,3 11,3 4,0 8,-1 11,-3 4,-1 7,-3 10,-6 3,-2 5,-5 7,-9 2,-3 4,-7 4,-10z"/>
  <path id="7" class="fil1 str0" d="M497 258c-1,0 -2,0 -3,-1 -1,0 -2,0 -5,-1 -2,0 -6,-1 -10,-2l10 -82c1,-10 1,-20 -1,-28 -1,-9 -4,-16 -9,-23 -4,-6 -10,-11 -18,-14 -7,-3 -16,-5 -26,-5 -6,0 -12,0 -17,2 -6,1 -11,3 -16,5 -5,2 -10,5 -14,8 -5,3 -9,7 -13,10l-1 -14c-2,-6 -5,-8 -11,-8l-27 0 -27 0 -3 21c-1,6 2,10 8,11 0,0 1,0 2,1 1,0 3,0 5,1 3,0 6,1 11,1l-12 96 -7 54 45 0 4 -36 4 -30 1 -9 7 -59c7,-6 14,-11 21,-14 7,-4 15,-5 22,-5 11,0 18,3 23,9 4,6 6,15 4,26l-14 118 44 0 28 0 2 -21c1,-6 -2,-10 -7,-11z"/>
  <path id="8" class="fil1 str0" d="M710 258c-1,0 -2,0 -3,-1 -1,0 -2,0 -5,-1 -2,0 -6,-1 -10,-2l10 -82c1,-10 1,-20 -1,-28 -1,-9 -4,-16 -9,-23 -4,-6 -10,-11 -18,-14 -7,-3 -16,-5 -26,-5 -6,0 -12,0 -17,2 -6,1 -11,3 -16,5 -5,2 -10,5 -14,8 -5,3 -9,7 -13,10l-1 -14c-2,-6 -5,-8 -11,-8l-27 0 -27 0 -3 21c-1,6 2,10 8,11 0,0 1,0 2,1 1,0 3,0 5,1 3,0 6,1 11,1l-12 96 -7 54 45 0 4 -36 4 -30 1 -9 7 -59c7,-6 14,-11 21,-14 7,-4 15,-5 22,-5 11,0 18,3 23,9 4,6 6,15 4,26l-14 118 44 0 28 0 2 -21c1,-6 -2,-10 -7,-11z"/>
  <path id="9" class="fil1 str0" d="M836 102c-14,0 -27,2 -38,6 -12,5 -23,11 -32,19 -9,8 -16,19 -22,30 -6,12 -10,25 -11,40 -2,15 -2,28 1,40 3,12 8,22 15,30 7,8 16,15 27,19 11,5 23,7 37,7 13,0 26,-2 38,-7 12,-4 22,-11 31,-19 9,-8 16,-18 22,-30 6,-12 10,-25 11,-40 2,-15 2,-28 -1,-40 -3,-11 -8,-22 -15,-30 -7,-8 -16,-14 -26,-19 -11,-4 -23,-6 -37,-6zm-19 156c-16,0 -27,-5 -33,-15 -6,-11 -8,-26 -5,-46 2,-20 8,-35 16,-45 9,-11 21,-16 37,-16 15,0 26,5 32,16 6,10 8,25 5,45 -2,20 -8,35 -16,46 -9,10 -21,15 -36,15z"/>
  <path id="10" class="fil1 str0" d="M1133 105l0 0 -35 0c0,0 0,0 0,0l-43 0 -3 21c0,6 2,10 8,11 2,1 3,1 12,2l-36 73c-3,6 -5,12 -7,17 -2,6 -4,11 -6,17 0,-6 -1,-11 -2,-17 0,-5 -1,-11 -3,-17l-17 -73c7,-1 8,-1 10,-2 6,-1 10,-5 10,-11l3 -21 -41 0c0,0 0,0 0,0l-37 0 0 0 -12 0 -3 21c0,6 2,10 8,11 3,1 2,1 17,3l41 150 40 0 78 -150c15,-2 14,-2 17,-3 6,-1 10,-5 10,-11l3 -21 -12 0z"/>
  <path id="11" class="fil1 str0" d="M1301 148c0,-5 -1,-11 -4,-16 -2,-6 -6,-11 -11,-15 -5,-4 -11,-8 -18,-11 -7,-2 -15,-4 -25,-4 -10,0 -20,2 -28,5 -9,2 -17,6 -24,12 -8,5 -14,11 -20,18 -6,7 -10,15 -14,23 -4,9 -7,18 -9,27 -2,10 -4,19 -4,29 0,12 2,22 6,32 3,9 8,17 14,24 6,6 14,12 22,15 9,4 19,6 30,6 8,0 16,-1 23,-2 7,-2 14,-4 20,-7 7,-3 13,-7 19,-12 6,-4 12,-10 19,-16l-12 -14c-1,-1 -2,-2 -3,-3 -2,0 -3,-1 -5,-1 -2,0 -4,1 -6,2 -2,1 -4,2 -6,3 -2,2 -5,3 -7,5 -3,2 -5,4 -8,5 -4,2 -7,3 -11,4 -4,1 -9,1 -14,1 -25,0 -37,-14 -37,-43l0 -3c22,-2 41,-5 56,-9 14,-4 26,-9 34,-14 9,-5 15,-12 18,-18 3,-7 5,-15 5,-23zm-61 -15c4,0 7,1 10,2 2,1 4,2 6,4 2,1 3,3 4,5 0,2 1,4 1,5 0,4 -1,8 -3,11 -1,3 -5,6 -10,9 -5,3 -12,6 -21,8 -9,2 -21,5 -36,7 2,-8 5,-14 8,-21 3,-6 6,-11 10,-16 5,-4 9,-8 14,-10 6,-3 11,-4 17,-4z"/>
  <path class="fil3" d="M371 230l-148 63c9,7 17,14 26,21 -24,20 -98,31 -137,13 110,84 231,-49 259,-97z"/>
  <path class="fil3" d="M90 220c9,-26 15,-56 96,-121 -57,49 -116,124 -77,216 -12,-8 -33,-41 -19,-95z"/>
  <path class="fil4" d="M112 327c48,46 74,63 172,21l15 31 72 -149c-24,32 -134,178 -259,97z"/>
  <polygon class="fil5" points="214,278 371,230 223,293 "/>
  <path class="fil5" d="M249 314c-3,-2 -6,-5 -8,-7 -37,29 -109,29 -132,8 -44,-41 -27,-136 77,-216 -125,87 -130,191 -81,224 39,26 104,26 144,-9z"/>
 </g>
</svg>
